<?xml version="1.0" encoding="UTF-8"?>
<svg id="Layer_1" data-name="Layer 1" xmlns="http://www.w3.org/2000/svg" viewBox="0 0 360 360">
  <defs>
    <style>
      .cls-1 {
        fill: #fff;
      }
    </style>
  </defs>
  <path class="cls-1" d="M180.02,82.8c3.86,0,7-3.13,7-7v-26.02c0-3.86-3.14-7-7-7s-7,3.14-7,7v26.02c0,3.87,3.13,7,7,7ZM180.02,45.65c2.49,0,4.52,2.02,4.52,4.52s-2.03,4.52-4.52,4.52-4.53-2.02-4.53-4.52,2.03-4.52,4.53-4.52Z"/>
  <path class="cls-1" d="M131.19,95.74c1.37,1.37,3.16,2.05,4.95,2.05s3.58-.68,4.95-2.05c2.73-2.73,2.73-7.17,0-9.9l-12.76-12.76c-2.73-2.73-7.17-2.73-9.9,0-2.73,2.73-2.73,7.17,0,9.9l12.76,12.76Z"/>
  <path class="cls-1" d="M223.9,97.79c1.79,0,3.58-.68,4.95-2.05l12.76-12.76c2.73-2.73,2.73-7.17,0-9.9-2.73-2.73-7.17-2.73-9.9,0l-12.76,12.76c-2.73,2.73-2.73,7.17,0,9.9,1.37,1.37,3.16,2.05,4.95,2.05Z"/>
  <path class="cls-1" d="M300.06,177.57l-116.11-79.34s-.05-.03-.07-.04c-.12-.08-.24-.15-.36-.22-.08-.05-.17-.1-.25-.15-.1-.05-.21-.1-.32-.15-.11-.05-.21-.1-.32-.15-.08-.03-.17-.06-.25-.09-.13-.05-.27-.1-.4-.14-.07-.02-.13-.03-.2-.05-.15-.04-.3-.08-.46-.11-.07-.01-.14-.02-.21-.03-.15-.02-.3-.05-.45-.06-.1,0-.2-.01-.29-.02-.12,0-.24-.02-.37-.02-.14,0-.28,0-.41.02-.08,0-.16,0-.24.01-.16.02-.33.04-.49.07-.06,0-.11.01-.17.03-.16.03-.32.07-.48.11-.06.02-.12.03-.18.04-.14.04-.28.09-.42.14-.08.03-.16.05-.24.09-.11.05-.22.1-.33.15-.1.05-.21.1-.31.15-.09.05-.17.1-.26.15-.12.07-.24.14-.35.22-.02.02-.05.03-.07.04l-116.11,79.34c-3.19,2.18-4.01,6.54-1.83,9.73,1.36,1.98,3.55,3.05,5.79,3.05,1.36,0,2.74-.4,3.94-1.22l112.16-76.64,112.16,76.64c1.21.83,2.58,1.22,3.94,1.22,2.23,0,4.43-1.07,5.79-3.05,2.18-3.19,1.36-7.55-1.83-9.73Z"/>
  <path class="cls-1" d="M281.66,282.3v-84.21s0-.02,0-.03v-.03s0-.09,0-.14c0-.18,0-.35-.03-.53-.01-.11-.03-.22-.05-.33-.02-.11-.03-.23-.05-.34-.03-.13-.06-.26-.09-.38-.02-.09-.04-.18-.07-.27-.04-.13-.08-.25-.13-.37-.03-.09-.06-.18-.1-.27-.05-.11-.1-.22-.15-.33-.05-.1-.09-.2-.14-.3-.05-.09-.1-.18-.16-.27-.06-.11-.13-.22-.2-.32-.05-.08-.1-.15-.16-.22-.08-.11-.16-.22-.25-.33-.06-.07-.11-.13-.17-.2-.09-.1-.18-.21-.28-.31-.07-.08-.16-.15-.23-.22-.09-.08-.17-.16-.26-.24-.13-.11-.26-.21-.4-.3-.05-.03-.09-.07-.13-.1l-.03-.02s-.01,0-.02-.01l-94.62-64.65s-.05-.03-.07-.04c-.12-.08-.24-.15-.36-.22-.08-.05-.16-.1-.25-.14-.11-.06-.21-.1-.32-.16-.11-.05-.21-.1-.32-.14-.08-.03-.17-.06-.26-.09-.13-.05-.26-.1-.4-.14-.07-.02-.13-.03-.2-.05-.15-.04-.3-.08-.46-.11-.07-.01-.13-.02-.2-.03-.15-.02-.3-.05-.46-.06-.09,0-.19,0-.28-.01-.13,0-.25-.02-.38-.02s-.26,0-.39.02c-.09,0-.18,0-.27.01-.15.01-.31.04-.46.06-.07.01-.13.02-.2.03-.15.03-.31.07-.46.11-.07.02-.13.03-.2.05-.13.04-.27.09-.4.14-.09.03-.17.06-.26.09-.11.04-.21.09-.32.14-.11.05-.22.1-.32.16-.08.04-.16.09-.25.14-.12.07-.24.14-.36.22-.02.02-.05.03-.07.04l-94.23,64.39c-2.11,1.21-3.53,3.47-3.53,6.08v84.33c0,3.87,3.13,7,7,7,.02,0,.04,0,.07,0h71.09c3.87,0,7-3.13,7-7v-57.94h32.68v57.94c0,3.87,3.13,7,7,7h71.47s.04,0,.07,0c2.18,0,4.12-.99,5.4-2.55,1-1.21,1.6-2.76,1.6-4.46,0-.02,0-.04,0-.06ZM156.44,210.42c-3.87,0-7,3.13-7,7v57.94h-57.15v-73.6l87.71-59.93,87.66,59.9v73.63h-57.54v-57.94c0-3.87-3.13-7-7-7h-46.68Z"/>
</svg>